<svg width="16" height="16" viewBox="0 0 16 16" fill="none" xmlns="http://www.w3.org/2000/svg">
<g clip-path="url(#clip0_182_5)">
<path d="M0.0065918 3.84633C0.0065918 1.72563 1.72563 0.0065918 3.84633 0.0065918H12.1529C14.2743 0.0065918 15.9933 1.72563 15.9933 3.84633V15.9999H3.84633C1.72563 15.9999 0.0065918 14.2809 0.0065918 12.1602V3.84633Z" fill="url(#paint0_linear_182_5)"/>
<path d="M7.36369 1.98905C6.04698 1.98905 4.87723 2.8356 4.46959 4.0858C3.62304 4.26004 2.8922 4.78938 2.46393 5.5395C1.80359 6.67932 1.95454 8.1124 2.839 9.0893C2.56568 9.90792 2.65945 10.803 3.09569 11.5445C3.75205 12.6883 5.07275 13.2748 6.36485 13.0022C6.93742 13.6472 7.76003 14.015 8.6232 14.0117C9.93991 14.0117 11.1097 13.1651 11.518 11.9149C12.3658 11.74 13.0954 11.2107 13.5196 10.4619C14.184 9.32205 14.033 7.88896 13.1486 6.91141V6.90742C13.4219 6.0888 13.3281 5.19304 12.8919 4.44823C12.2355 3.30841 10.9148 2.72188 9.62669 2.99453C9.0508 2.35081 8.22686 1.98506 7.36369 1.98905ZM7.36369 2.77043L7.35969 2.77442C7.8897 2.77442 8.3991 2.95729 8.80674 3.29578C8.79012 3.30376 8.75753 3.32437 8.73359 3.33634L6.33625 4.71689C6.21389 4.78605 6.14074 4.91639 6.14074 5.05871V8.29927L5.10932 7.70476V5.02612C5.10866 3.7819 6.11747 2.77242 7.36369 2.77043ZM10.2511 3.71407C11.0598 3.71274 11.8072 4.14299 12.2109 4.84324C12.4716 5.29944 12.5693 5.83277 12.4796 6.34948C12.4629 6.33751 12.431 6.32088 12.4104 6.30891L10.0137 4.92437C9.89137 4.85521 9.74108 4.85521 9.61871 4.92437L6.80974 6.54499V5.35596L9.12861 4.01664C9.46975 3.81914 9.85679 3.71473 10.2511 3.71407ZM4.32262 4.94432V7.78988C4.32262 7.93219 4.39577 8.05854 4.51813 8.13169L7.32245 9.74765L6.28704 10.3462L3.9715 9.01082C2.89419 8.38705 2.52578 7.00983 3.14822 5.93319C3.41223 5.47699 3.82719 5.1272 4.32262 4.94432ZM9.69519 5.64923L12.0147 6.98456C13.0954 7.60767 13.4618 8.98356 12.838 10.0622L12.842 10.0662C12.5773 10.5224 12.161 10.8722 11.6683 11.0517V8.2055C11.6683 8.06319 11.5951 7.93285 11.4727 7.86369L8.66443 6.24308L9.69519 5.64923ZM7.99145 6.63011L9.17383 7.31373V8.67766L7.99145 9.36128L6.80907 8.67766V7.31373L7.99145 6.63011ZM9.85014 7.70476L10.8816 8.29927V10.9739C10.8816 12.2195 9.87075 13.2296 8.62719 13.2296V13.2256C8.10118 13.2256 7.58779 13.0421 7.18413 12.7043C7.20076 12.6963 7.23733 12.6757 7.25728 12.6637L9.65396 11.2838C9.77632 11.2146 9.85346 11.0843 9.84947 10.942L9.85014 7.70476ZM9.17715 9.45571V10.6447L6.85762 11.9801C5.77699 12.5992 4.39976 12.2328 3.77599 11.1575H3.77998C3.51531 10.7053 3.42088 10.1679 3.51065 9.65122C3.52728 9.66319 3.55986 9.67982 3.57981 9.69179L5.97649 11.0763C6.09885 11.1455 6.24914 11.1455 6.3715 11.0763L9.17715 9.45571Z" fill="white"/>
</g>
<defs>
<linearGradient id="paint0_linear_182_5" x1="-4.89551e-05" y1="7.0666" x2="14.9333" y2="11.7999" gradientUnits="userSpaceOnUse">
<stop stop-color="#FF0D0D"/>
<stop offset="1" stop-color="#094EFF"/>
</linearGradient>
<clipPath id="clip0_182_5">
<rect width="16" height="16" fill="white"/>
</clipPath>
</defs>
</svg>
