<svg width="32" height="32" viewBox="0 0 32 32" fill="none" xmlns="http://www.w3.org/2000/svg">
<g clip-path="url(#clip0_182_5)">
<path d="M0.0131836 7.69277C0.0131836 3.45138 3.45126 0.0133057 7.69265 0.0133057H24.3058C28.5485 0.0133057 31.9866 3.45138 31.9866 7.69277V32H7.69265C3.45126 32 0.0131836 28.5619 0.0131836 24.3205V7.69277Z" fill="url(#paint0_linear_182_5)"/>
<path d="M14.7271 3.97809C12.0937 3.97809 9.75423 5.67119 8.93893 8.17161C7.24583 8.52007 5.78415 9.57876 4.92763 11.079C3.60693 13.3586 3.90884 16.2248 5.67775 18.1786C5.13112 19.8158 5.31865 21.606 6.19113 23.089C7.50385 25.3766 10.1452 26.5497 12.7295 26.0044C13.8746 27.2945 15.5198 28.03 17.2462 28.0233C19.8796 28.0233 22.2191 26.3302 23.0357 23.8298C24.7314 23.48 26.1905 22.4213 27.039 20.9237C28.3677 18.6441 28.0658 15.7779 26.2969 13.8228V13.8148C26.8435 12.1776 26.656 10.3861 25.7835 8.89646C24.4708 6.61683 21.8294 5.44376 19.2531 5.98906C18.1014 4.70162 16.4535 3.97011 14.7271 3.97809ZM14.7271 5.54085L14.7191 5.54883C15.7792 5.54883 16.7979 5.91458 17.6132 6.59156C17.58 6.60752 17.5148 6.64875 17.4669 6.67269L12.6723 9.43379C12.4275 9.57211 12.2812 9.83279 12.2812 10.1174V16.5985L10.2184 15.4095V10.0522C10.2171 7.56379 12.2347 5.54484 14.7271 5.54085ZM20.502 7.42813C22.1193 7.42547 23.6142 8.28599 24.4216 9.68649C24.9429 10.5989 25.1384 11.6655 24.9589 12.699C24.9256 12.675 24.8618 12.6418 24.8206 12.6178L20.0272 9.84875C19.7825 9.71043 19.4819 9.71043 19.2372 9.84875L13.6192 13.09V10.7119L18.257 8.03329C18.9393 7.63827 19.7133 7.42946 20.502 7.42813ZM8.645 9.88865V15.5798C8.645 15.8644 8.7913 16.1171 9.03602 16.2634L14.6447 19.4953L12.5738 20.6923L7.94275 18.0216C5.78814 16.7741 5.05132 14.0197 6.2962 11.8664C6.82422 10.954 7.65414 10.2544 8.645 9.88865ZM19.3901 11.2985L24.0292 13.9691C26.1905 15.2153 26.9233 17.9671 25.6758 20.1244L25.6837 20.1324C25.1544 21.0448 24.3218 21.7443 23.3363 22.1034V16.411C23.3363 16.1264 23.19 15.8657 22.9452 15.7274L17.3286 12.4862L19.3901 11.2985ZM15.9827 13.2602L18.3474 14.6275V17.3553L15.9827 18.7226L13.6179 17.3553V14.6275L15.9827 13.2602ZM19.7 15.4095L21.7629 16.5985V21.9478C21.7629 24.4389 19.7413 26.4592 17.2541 26.4592V26.4512C16.2021 26.4512 15.1753 26.0842 14.368 25.4085C14.4013 25.3926 14.4744 25.3513 14.5143 25.3274L19.3077 22.5676C19.5524 22.4293 19.7067 22.1686 19.6987 21.884L19.7 15.4095ZM18.3541 18.9114V21.2895L13.715 23.9601C11.5537 25.1984 8.79928 24.4655 7.55173 22.3149H7.55971C7.03037 21.4105 6.84151 20.3359 7.02106 19.3024C7.05431 19.3264 7.11948 19.3596 7.15938 19.3836L11.9527 22.1527C12.1975 22.291 12.498 22.291 12.7428 22.1527L18.3541 18.9114Z" fill="white"/>
</g>
<defs>
<linearGradient id="paint0_linear_182_5" x1="-9.79101e-05" y1="14.1333" x2="29.8666" y2="23.6" gradientUnits="userSpaceOnUse">
<stop stop-color="#FF0D0D"/>
<stop offset="1" stop-color="#094EFF"/>
</linearGradient>
<clipPath id="clip0_182_5">
<rect width="32" height="32" fill="white"/>
</clipPath>
</defs>
</svg>
