<svg width="180" height="180" viewBox="0 0 180 180" fill="none" xmlns="http://www.w3.org/2000/svg">
<g clip-path="url(#clip0_182_5)">
<path d="M0.074707 43.2718C0.074707 19.414 19.4139 0.0748291 43.2717 0.0748291H136.721C160.586 0.0748291 179.925 19.414 179.925 43.2718V180H43.2717C19.4139 180 0.074707 160.661 0.074707 136.803V43.2718Z" fill="url(#paint0_linear_182_5)"/>
<path d="M82.8403 22.3766C68.0273 22.3766 54.8677 31.9003 50.2817 45.9651C40.758 47.9252 32.5361 53.8803 27.7181 62.3192C20.2892 75.1422 21.9874 91.2644 31.9376 102.254C28.8627 111.464 29.9176 121.534 34.8253 129.875C42.2094 142.743 57.0672 149.342 71.6034 146.274C78.0448 153.531 87.2991 157.668 97.0099 157.631C111.823 157.631 124.982 148.107 129.576 134.042C139.115 132.075 147.322 126.12 152.095 117.696C159.568 104.873 157.87 88.7506 147.92 77.7531V77.7082C150.995 68.4988 149.94 58.4215 145.032 50.0424C137.648 37.2195 122.79 30.621 108.299 33.6883C101.82 26.4464 92.551 22.3317 82.8403 22.3766ZM82.8403 31.1671L82.7954 31.212C88.758 31.212 94.4887 33.2694 99.0747 37.0773C98.8877 37.1671 98.5211 37.399 98.2518 37.5337L71.2817 53.0649C69.9051 53.8429 69.0822 55.3093 69.0822 56.9102V93.3666L57.4787 86.6783V56.5437C57.4712 42.5462 68.8204 31.1896 82.8403 31.1671ZM115.324 41.7831C124.421 41.7681 132.83 46.6085 137.371 54.4863C140.304 59.6185 141.404 65.6185 140.394 71.4314C140.207 71.2968 139.848 71.1097 139.616 70.9751L112.653 55.399C111.277 54.621 109.586 54.621 108.209 55.399L76.6084 73.6309V60.2544L102.696 45.1871C106.534 42.9651 110.888 41.7905 115.324 41.7831ZM48.6283 55.6235V87.6359C48.6283 89.2369 49.4513 90.6584 50.8278 91.4813L82.3765 109.661L70.7281 116.394L44.6782 101.372C32.5585 94.3541 28.4139 78.8604 35.4164 66.7482C38.3864 61.616 43.0548 57.6808 48.6283 55.6235ZM109.07 63.5536L135.164 78.5761C147.322 85.5861 151.444 101.065 144.426 113.2L144.471 113.244C141.494 118.377 136.81 122.312 131.267 124.332V92.3117C131.267 90.7107 130.444 89.2444 129.067 88.4664L97.4737 70.2344L109.07 63.5536ZM89.9026 74.5886L103.204 82.2793V97.6235L89.9026 105.314L76.6009 97.6235V82.2793L89.9026 74.5886ZM110.813 86.6783L122.416 93.3666V123.456C122.416 137.469 111.045 148.833 97.0548 148.833V148.788C91.1371 148.788 85.3615 146.723 80.8204 142.923C81.0074 142.833 81.4189 142.601 81.6433 142.466L108.606 126.943C109.982 126.165 110.85 124.698 110.805 123.097L110.813 86.6783ZM103.242 106.377V119.753L77.147 134.776C64.9899 141.741 49.4962 137.618 42.4787 125.521H42.5236C39.546 120.434 38.4837 114.389 39.4937 108.576C39.6807 108.711 40.0473 108.898 40.2717 109.032L67.2343 124.609C68.6109 125.387 70.3016 125.387 71.6782 124.609L103.242 106.377Z" fill="white"/>
</g>
<defs>
<linearGradient id="paint0_linear_182_5" x1="-1.43112e-06" y1="79.4999" x2="168" y2="132.75" gradientUnits="userSpaceOnUse">
<stop stop-color="#FF0D0D"/>
<stop offset="1" stop-color="#094EFF"/>
</linearGradient>
<clipPath id="clip0_182_5">
<rect width="180" height="180" fill="white"/>
</clipPath>
</defs>
</svg>
